<?xml version="1.0" standalone="no"?>
<!DOCTYPE svg PUBLIC "-//W3C//DTD SVG 20010904//EN"
 "http://www.w3.org/TR/2001/REC-SVG-20010904/DTD/svg10.dtd">
<svg version="1.0" xmlns="http://www.w3.org/2000/svg"
 width="229.000000pt" height="39.000000pt" viewBox="0 0 229.000000 39.000000"
 preserveAspectRatio="xMidYMid meet">

<g transform="translate(0.000000,39.000000) scale(0.100000,-0.100000)"
fill="#000000" stroke="none">
<path d="M0 195 l0 -195 1145 0 1145 0 0 195 0 195 -1145 0 -1145 0 0 -195z
m1467 99 c62 -21 62 -22 33 -44 l-24 -18 42 -17 c46 -19 50 -26 27 -45 -13
-11 -14 -10 -9 3 4 12 -4 18 -33 26 -21 6 -43 11 -49 11 -12 0 -29 -68 -20
-78 3 -3 25 2 48 11 23 10 38 13 32 8 -5 -5 -33 -19 -63 -30 l-53 -20 6 22 c9
30 26 128 26 150 0 9 -7 17 -15 17 -8 0 -15 5 -15 10 0 14 11 13 67 -6z m474
-25 c-20 -56 -15 -62 30 -39 23 12 43 19 46 17 2 -3 -10 -21 -27 -41 l-32 -35
26 -26 c26 -26 46 -32 46 -15 0 6 5 10 10 10 6 0 10 -7 10 -16 0 -26 -70 -11
-95 21 l-21 25 -11 -30 c-6 -17 -16 -30 -22 -30 -9 0 -9 6 -1 20 6 10 13 47
17 81 6 60 5 62 -15 57 -12 -4 -22 -3 -22 0 0 7 63 39 69 35 2 -1 -2 -16 -8
-34z m-1005 15 c-11 -30 -36 -146 -36 -170 0 -14 11 -36 25 -49 15 -15 19 -25
11 -25 -19 0 -46 44 -46 75 0 31 -7 31 -37 3 l-23 -21 0 44 c0 55 29 94 62 83
19 -6 20 -3 15 29 -6 38 -2 47 21 47 9 0 12 -6 8 -16z m260 -24 c7 -40 7 -40
43 -34 24 4 33 3 26 -4 -5 -5 -19 -12 -30 -14 -17 -3 -20 -11 -18 -45 1 -28
-3 -43 -13 -47 -11 -4 -14 5 -14 39 0 25 -5 45 -11 45 -5 0 -7 5 -4 10 11 17
-5 52 -21 46 -11 -4 -11 0 2 19 23 35 33 31 40 -15z m-950 13 c-4 -5 -20 -8
-34 -8 -22 0 -27 -5 -27 -25 0 -20 6 -26 30 -31 34 -7 16 -19 -24 -16 -20 2
-26 -4 -34 -33 -10 -39 -24 -60 -40 -60 -5 0 -2 9 9 21 10 12 20 37 21 58 2
20 4 47 5 61 2 19 -1 24 -14 22 -10 -2 -18 2 -18 8 0 6 27 10 67 10 36 0 63
-3 59 -7z m134 -54 c0 -26 -62 -109 -82 -109 -17 0 -8 80 12 100 21 21 70 28
70 9z m94 -36 l-7 -48 45 43 c24 23 46 42 49 42 11 0 -7 -94 -18 -98 -9 -2
-11 5 -7 27 9 41 -7 40 -40 -4 -45 -59 -68 -42 -46 33 7 28 7 33 -5 28 -8 -3
-15 -1 -15 4 0 7 16 15 42 19 4 0 5 -20 2 -46z m196 21 c-17 -44 -11 -49 23
-16 18 18 37 32 43 32 5 0 8 -18 6 -41 -4 -40 -4 -41 19 -29 20 9 19 7 -5 -14
-17 -14 -33 -23 -37 -20 -4 2 -5 23 -2 47 l6 42 -26 -24 c-15 -13 -29 -32 -33
-43 -10 -34 -22 -18 -19 26 3 47 10 66 25 66 6 0 5 -11 0 -26z m1030 15 c0
-26 -62 -109 -82 -109 -17 0 -8 80 12 100 21 21 70 28 70 9z m140 0 c0 -26
-62 -109 -82 -109 -17 0 -8 80 12 100 21 21 70 28 70 9z m-697 -23 c12 3 6 -2
-14 -11 -20 -9 -42 -28 -48 -42 -6 -14 -14 -23 -18 -20 -3 4 -1 13 5 20 7 8 9
17 5 21 -4 4 3 16 17 26 14 11 26 15 28 11 2 -5 13 -7 25 -5z"/>
<path d="M1450 260 c-15 -28 -13 -31 15 -18 28 13 32 23 10 32 -8 3 -19 -3
-25 -14z"/>
<path d="M1950 205 c-14 -16 -10 -18 14 -9 9 3 16 10 16 15 0 14 -16 11 -30
-6z"/>
<path d="M861 191 c-6 -11 -11 -27 -11 -35 0 -14 3 -14 20 -4 26 17 32 34 15
48 -11 9 -16 7 -24 -9z"/>
<path d="M317 203 c-11 -10 -8 -63 3 -63 12 0 30 33 30 54 0 16 -21 22 -33 9z"/>
<path d="M1637 203 c-11 -10 -8 -63 3 -63 12 0 30 33 30 54 0 16 -21 22 -33 9z"/>
<path d="M1777 203 c-11 -10 -8 -63 3 -63 12 0 30 33 30 54 0 16 -21 22 -33 9z"/>
</g>
</svg>
