<?xml version="1.0" encoding="UTF-8"?>
<!DOCTYPE svg PUBLIC "-//W3C//DTD SVG 1.1//EN" "http://www.w3.org/Graphics/SVG/1.1/DTD/svg11.dtd">
<svg xmlns="http://www.w3.org/2000/svg" version="1.1" width="229px" height="39px" style="shape-rendering:geometricPrecision; text-rendering:geometricPrecision; image-rendering:optimizeQuality; fill-rule:evenodd; clip-rule:evenodd" xmlns:xlink="http://www.w3.org/1999/xlink">
<g><path style="opacity:0.621" fill="#feda00" d="M 148.5,15.5 C 148.44,16.0431 148.107,16.3764 147.5,16.5C 146.614,15.675 146.281,14.675 146.5,13.5C 147.773,12.9232 147.773,12.2565 146.5,11.5C 145.817,11.8627 145.15,12.1961 144.5,12.5C 143.508,12.6716 142.842,12.3382 142.5,11.5C 141.432,10.5655 140.099,10.2322 138.5,10.5C 138.222,8.65358 138.889,7.32025 140.5,6.5C 144.192,7.56388 147.859,8.73055 151.5,10C 152.451,10.7175 152.617,11.5509 152,12.5C 150.855,13.6364 149.688,14.6364 148.5,15.5 Z"/></g>
<g><path style="opacity:0.848" fill="#fedb00" d="M 193.5,16.5 C 192.883,16.3893 192.383,16.056 192,15.5C 191.195,18.6965 191.362,21.6965 192.5,24.5C 191.857,28.0411 190.19,28.8744 187.5,27C 190.056,22.5279 191.056,17.6946 190.5,12.5C 189.022,12.762 187.689,12.4287 186.5,11.5C 188.664,9.70902 191.164,8.37569 194,7.5C 194.5,7.83333 195,8.16667 195.5,8.5C 194.215,11.0205 193.548,13.6872 193.5,16.5 Z"/></g>
<g><path style="opacity:0.75" fill="#feda00" d="M 11.5,9.5 C 16.2137,9.17338 20.8804,9.50671 25.5,10.5C 23.9233,13.7874 21.5899,14.4541 18.5,12.5C 18.67,13.8221 18.3366,14.9887 17.5,16C 19.4727,16.4955 21.4727,16.6621 23.5,16.5C 23.5499,18.5901 22.5499,19.9234 20.5,20.5C 19.2638,19.7542 17.9305,19.4208 16.5,19.5C 16.4349,23.9066 14.6015,27.2399 11,29.5C 10.5,29.1667 10,28.8333 9.5,28.5C 11.8105,26.0457 13.4772,23.2124 14.5,20C 13.6919,19.6924 13.0253,19.1924 12.5,18.5C 14.4468,16.7244 14.7801,14.7244 13.5,12.5C 10.5751,13.4537 9.90841,12.4537 11.5,9.5 Z"/></g>
<g><path style="opacity:0.724" fill="#fedb00" d="M 120.5,15.5 C 120.19,16.7383 119.69,16.7383 119,15.5C 118.79,17.0581 118.29,18.3915 117.5,19.5C 115.046,19.3205 112.879,19.9872 111,21.5C 109.398,23.6977 107.565,25.6977 105.5,27.5C 104.17,25.6531 104.503,24.1531 106.5,23C 105.549,22.2825 105.383,21.4491 106,20.5C 107.205,19.9288 108.372,19.2621 109.5,18.5C 111.445,14.2637 114.112,10.5971 117.5,7.5C 118.086,7.70931 118.586,8.04265 119,8.5C 119.29,10.9204 119.79,13.2537 120.5,15.5 Z M 114.5,13.5 C 116.104,14.287 116.771,15.6203 116.5,17.5C 111.879,18.9408 111.213,17.6075 114.5,13.5 Z"/></g>
<g><path style="opacity:0.892" fill="#fedc00" d="M 32.5,14.5 C 35.0217,14.1281 37.0217,14.9614 38.5,17C 36.8152,21.8731 33.8152,25.7065 29.5,28.5C 28.6919,28.1924 28.0253,27.6924 27.5,27C 27.579,24.695 27.7457,22.195 28,19.5C 29.025,17.313 30.525,15.6464 32.5,14.5 Z M 31.5,18.5 C 32.4972,18.4701 33.1639,18.9701 33.5,20C 31.9061,24.3143 31.2394,23.8143 31.5,18.5 Z"/></g>
<g><path style="opacity:0.759" fill="#fedb00" d="M 91.5,7.5 C 92.675,7.28099 93.675,7.61432 94.5,8.5C 91.5843,15.5745 90.4177,22.9078 91,30.5C 93.1718,31.5089 94.3385,33.1756 94.5,35.5C 92.6096,35.7035 91.1096,35.0368 90,33.5C 88.9282,30.7821 87.7616,28.1155 86.5,25.5C 85.5791,27.756 83.9124,28.756 81.5,28.5C 80.6652,23.4388 81.9986,19.1055 85.5,15.5C 87.1012,14.8346 88.6012,14.5012 90,14.5C 90.1274,13.2234 89.6274,12.0567 88.5,11C 89.0707,9.40088 90.0707,8.23421 91.5,7.5 Z M 85.5,22.5 C 85.2222,20.6536 85.8888,19.3202 87.5,18.5C 88.9415,20.8329 88.2748,22.1662 85.5,22.5 Z"/></g>
<g><path style="opacity:0.892" fill="#fedc00" d="M 164.5,14.5 C 167.022,14.1281 169.022,14.9614 170.5,17C 168.815,21.8731 165.815,25.7065 161.5,28.5C 160.692,28.1924 160.025,27.6924 159.5,27C 159.579,24.695 159.746,22.195 160,19.5C 161.025,17.313 162.525,15.6464 164.5,14.5 Z M 163.5,18.5 C 164.497,18.4701 165.164,18.9701 165.5,20C 163.906,24.3143 163.239,23.8143 163.5,18.5 Z"/></g>
<g><path style="opacity:0.892" fill="#fedc00" d="M 178.5,14.5 C 181.022,14.1281 183.022,14.9614 184.5,17C 182.815,21.8731 179.815,25.7065 175.5,28.5C 174.692,28.1924 174.025,27.6924 173.5,27C 173.579,24.695 173.746,22.195 174,19.5C 175.025,17.313 176.525,15.6464 178.5,14.5 Z M 177.5,18.5 C 178.497,18.4701 179.164,18.9701 179.5,20C 177.906,24.3143 177.239,23.8143 177.5,18.5 Z"/></g>
<g><path style="opacity:0.811" fill="#fedc00" d="M 117.5,19.5 C 118.29,18.3915 118.79,17.0581 119,15.5C 119.69,16.7383 120.19,16.7383 120.5,15.5C 122.949,14.9426 125.282,14.9426 127.5,15.5C 126.278,17.9783 124.278,18.9783 121.5,18.5C 121.665,21.5184 121.498,24.5184 121,27.5C 120,28.8333 119,28.8333 118,27.5C 117.503,24.854 117.336,22.1873 117.5,19.5 Z"/></g>
<g><path style="opacity:0.77" fill="#fedc00" d="M 142.5,11.5 C 142.842,12.3382 143.508,12.6716 144.5,12.5C 144.842,13.3382 145.508,13.6716 146.5,13.5C 146.281,14.675 146.614,15.675 147.5,16.5C 148.107,16.3764 148.44,16.0431 148.5,15.5C 158.051,17.16 158.718,20.3266 150.5,25C 147.124,26.0698 143.79,27.2365 140.5,28.5C 139.833,28.1667 139.167,27.8333 138.5,27.5C 140.624,22.2275 141.957,16.8942 142.5,11.5 Z M 143.5,24.5 C 143.5,22.5 143.5,20.5 143.5,18.5C 155.443,19.8945 155.443,21.8945 143.5,24.5 Z"/></g>
<g><path style="opacity:0.849" fill="#feda00" d="M 46.5,14.5 C 47.4972,14.4701 48.1639,14.9701 48.5,16C 46.9574,18.3302 46.4574,20.8302 47,23.5C 49.6824,20.6503 52.5157,17.9836 55.5,15.5C 55.6848,18.4798 56.0181,21.4798 56.5,24.5C 55.3514,27.4291 53.6847,27.9291 51.5,26C 52.5536,24.6124 52.7203,23.1124 52,21.5C 50.5422,23.96 48.7089,26.1266 46.5,28C 44.1547,28.5438 42.8214,27.5438 42.5,25C 43.0682,23.1284 43.7349,21.2951 44.5,19.5C 43.5,18.8333 42.5,18.1667 41.5,17.5C 43.1446,16.3037 44.8113,15.3037 46.5,14.5 Z"/></g>
<g><path style="opacity:0.748" fill="#fedc00" d="M 65.5,14.5 C 66.675,14.281 67.675,14.6143 68.5,15.5C 65.9567,21.6674 66.9567,21.834 71.5,16C 72.448,15.5172 73.448,15.3505 74.5,15.5C 74.5,17.8333 74.5,20.1667 74.5,22.5C 75.675,22.281 76.675,22.6143 77.5,23.5C 75.9918,25.5075 74.1584,27.1741 72,28.5C 70.5833,25.7747 70.0833,23.108 70.5,20.5C 68.3674,22.0905 66.7007,24.0905 65.5,26.5C 64.675,27.3857 63.675,27.719 62.5,27.5C 62.8511,24.7623 63.5178,22.0956 64.5,19.5C 63.6034,19.3309 62.6034,18.9976 61.5,18.5C 63.188,17.4787 64.5213,16.1454 65.5,14.5 Z"/></g>
<g><path style="opacity:0.736" fill="#feda00" d="M 192.5,24.5 C 191.362,21.6965 191.195,18.6965 192,15.5C 192.383,16.056 192.883,16.3893 193.5,16.5C 195.829,14.722 198.496,13.722 201.5,13.5C 201.649,14.552 201.483,15.552 201,16.5C 195.16,19.7562 195.16,22.7562 201,25.5C 201.95,24.9777 202.784,24.311 203.5,23.5C 204.452,25.0453 204.785,26.712 204.5,28.5C 199.951,28.4088 196.117,26.7421 193,23.5C 192.601,23.7284 192.435,24.0618 192.5,24.5 Z"/></g>
</svg>
